HIERARCHY
ROOT root
{
	OFFSET 0.000000 0.000000 0.000000
	CHANNELS 6 Xposition Yposition Zposition Zrotation Yrotation Xrotation
	JOINT lhip
	{
		OFFSET 0.058581 -0.082280 -0.017664
		CHANNELS 3 Zrotation Yrotation Xrotation
		JOINT lknee
		{
			OFFSET 0.043451 -0.386469 0.008037
			CHANNELS 3 Zrotation Yrotation Xrotation
			JOINT lankle
			{
				OFFSET -0.014790 -0.426874 -0.037428
				CHANNELS 3 Zrotation Yrotation Xrotation
				JOINT ltoe
				{
					OFFSET 0.041054 -0.060286 0.122042
					CHANNELS 3 Zrotation Yrotation Xrotation
					End Site
					{
						OFFSET 0.000000 0.000000 0.000000
					}
				}
			}
		}
	}
	JOINT rhip
	{
		OFFSET -0.060310 -0.090513 -0.013543
		CHANNELS 3 Zrotation Yrotation Xrotation
		JOINT rknee
		{
			OFFSET -0.043257 -0.383688 -0.004843
			CHANNELS 3 Zrotation Yrotation Xrotation
			JOINT rankle
			{
				OFFSET 0.019056 -0.420046 -0.034562
				CHANNELS 3 Zrotation Yrotation Xrotation
				JOINT rtoe
				{
					OFFSET -0.034840 -0.062106 0.130323
					CHANNELS 3 Zrotation Yrotation Xrotation
					End Site
					{
						OFFSET 0.000000 0.000000 0.000000
					}
				}
			}
		}
	}
	JOINT lowerback
	{
		OFFSET 0.004439 0.124404 -0.038385
		CHANNELS 3 Zrotation Yrotation Xrotation
		JOINT upperback
		{
			OFFSET 0.004488 0.137956 0.026820
			CHANNELS 3 Zrotation Yrotation Xrotation
			JOINT chest
			{
				OFFSET -0.002265 0.056032 0.002855
				CHANNELS 3 Zrotation Yrotation Xrotation
				JOINT lowerneck
				{
					OFFSET -0.013390 0.211636 -0.033468
					CHANNELS 3 Zrotation Yrotation Xrotation
					JOINT upperneck
					{
						OFFSET 0.010113 0.088937 0.050410
						CHANNELS 3 Zrotation Yrotation Xrotation
						End Site
						{
							OFFSET 0.000000 0.000000 0.000000
						}
					}
				}
				JOINT lclavicle
				{
					OFFSET 0.071702 0.114000 -0.018898
					CHANNELS 3 Zrotation Yrotation Xrotation
					JOINT lshoulder
					{
						OFFSET 0.122921 0.045205 -0.019046
						CHANNELS 3 Zrotation Yrotation Xrotation
						JOINT lelbow
						{
							OFFSET 0.255332 -0.015649 -0.022946
							CHANNELS 3 Zrotation Yrotation Xrotation
							JOINT lwrist
							{
								OFFSET 0.265709 0.012698 -0.007375
								CHANNELS 3 Zrotation Yrotation Xrotation
								End Site
								{
									OFFSET 0.000000 0.000000 0.000000
								}
							}
						}
					}
				}
				JOINT rclavicle
				{
					OFFSET -0.082954 0.112472 -0.023707
					CHANNELS 3 Zrotation Yrotation Xrotation
					JOINT rshoulder
					{
						OFFSET -0.113228 0.046853 -0.008472
						CHANNELS 3 Zrotation Yrotation Xrotation
						JOINT relbow
						{
							OFFSET -0.260127 -0.014369 -0.031269
							CHANNELS 3 Zrotation Yrotation Xrotation
							JOINT rwrist
							{
								OFFSET -0.269108 0.006794 -0.006027
								CHANNELS 3 Zrotation Yrotation Xrotation
								End Site
								{
									OFFSET 0.000000 0.000000 0.000000
								}
							}
						}
					}
				}
			}
		}
	}
}
MOTION
Frames: 14
Frame Time: 0.033333
0.125261 1.118222 1.006865 -143.361087 5.344354 79.651581 7.258168 -9.064173 0.475822 -6.225324 -18.543155 22.344948 -0.036314 14.908687 -13.894526 0.000000 -0.000000 0.000000 -0.206516 -2.196187 -1.956304 0.658096 2.369974 22.120035 7.289534 -13.503226 -3.176605 0.000000 -0.000000 0.000000 -5.545492 2.948534 11.708105 -2.619278 -0.734369 8.558935 0.716379 1.355648 5.151788 1.674244 19.970781 -8.486465 7.398590 21.402561 -11.452020 -19.464319 8.204970 8.002539 -37.809278 22.174153 24.631462 -117.146393 -65.438867 116.645069 41.340068 0.786873 -30.139576 17.009779 -2.221777 11.821349 44.464916 -17.899243 27.222076 97.824461 73.155843 100.609668 -37.648989 6.545780 -19.447783 
0.125849 1.121625 0.969378 -148.621297 4.531482 78.342370 7.155950 -5.719150 0.444581 -8.538285 -17.449365 27.664197 3.628347 18.051369 -23.151042 0.000000 -0.000000 0.000000 -0.290588 -1.401336 -1.871110 1.371283 7.310329 24.697494 6.099866 -11.783379 -17.575927 0.000000 -0.000000 0.000000 -6.195012 2.958758 13.551466 -2.616867 -0.454702 5.703282 0.801207 0.984818 7.674567 2.560633 19.837972 -9.874503 6.985650 20.276774 -9.493990 -18.914729 8.749421 6.710976 -38.242683 22.006955 24.260057 -116.824889 -64.507719 116.467724 42.960206 2.718415 -30.810194 16.697378 -1.783050 11.172214 44.987245 -16.768956 27.553258 94.404701 72.933954 96.509521 -39.583627 5.147807 -19.838954 
0.128731 1.124567 0.952301 -153.575308 3.635033 80.152824 7.932851 -9.281609 -5.702069 -12.219728 -10.131737 35.796752 3.781022 21.452024 -24.431252 0.000000 -0.000000 0.000000 0.747741 2.384317 -5.028939 1.002179 9.281029 25.898590 3.640841 -14.362953 -22.298628 0.000000 -0.000000 0.000000 -6.940689 3.334214 10.701344 -2.399468 -0.321294 5.724461 -0.051412 0.976927 8.460275 3.644172 19.836607 -9.631741 6.754359 18.712503 -8.797890 -19.485639 8.749595 6.823192 -38.254990 20.108152 24.473873 -112.071123 -66.341369 112.173793 42.426575 1.761911 -30.247486 17.550954 -2.332387 11.053525 46.565790 -14.572438 27.857493 80.074815 74.290927 83.133760 -39.687424 4.624278 -21.819853 
0.131304 1.125238 0.953961 -157.052055 3.533823 79.903814 7.555538 -8.059781 -3.477847 -10.864031 -10.092804 33.474428 4.516407 22.771652 -24.381991 0.000000 -0.000000 0.000000 2.304187 5.879812 -7.595243 1.105204 10.395411 30.259652 4.279988 -15.418068 -21.531704 0.000000 -0.000000 0.000000 -7.372073 1.836399 10.907270 -2.321347 -0.125764 6.291916 -0.326043 0.985849 8.013898 3.553756 19.280577 -9.472045 6.701456 18.839916 -8.466501 -20.292136 9.101275 6.713950 -37.984040 19.977263 24.755192 -112.573504 -67.165226 111.813502 44.365663 1.049494 -30.134415 18.008533 -2.630725 10.530443 45.520550 -14.600524 28.674818 80.783791 75.051359 84.488670 -38.898906 6.493863 -19.393697 
0.135295 1.125627 0.964580 -159.860843 3.428743 79.860299 6.830358 -7.902048 -0.941739 -9.179652 -10.764183 29.614021 4.368271 24.434039 -22.580027 0.000000 -0.000000 0.000000 2.905618 7.123666 -6.173207 1.301343 11.835448 26.760181 4.018585 -15.766341 -19.445987 0.000000 -0.000000 0.000000 -7.749099 1.187294 11.289983 -2.375649 -0.269335 5.427423 -0.247248 1.018318 8.399784 3.118929 19.017640 -8.761771 7.015986 18.056429 -8.504705 -19.416942 9.203171 6.795807 -37.598324 19.769368 25.530048 -115.152574 -66.467145 114.086997 45.094660 1.349941 -30.670362 17.703155 -3.068538 10.099947 45.093355 -15.103908 29.176641 83.631542 74.349068 87.385379 -39.042619 6.525718 -18.906732 
0.135685 1.135173 0.977022 -161.536805 2.968453 79.278989 5.378205 -6.301128 3.811811 -6.231052 -12.345988 23.829386 3.974740 24.252564 -20.861487 0.000000 -0.000000 0.000000 2.955776 4.285595 -1.838649 -0.532605 14.269160 20.324129 4.089852 -13.094584 -18.252282 0.000000 -0.000000 0.000000 -7.646262 1.544332 10.371551 -2.571378 -0.604947 6.300387 -0.087624 0.917800 8.212378 2.812740 18.151020 -8.175392 7.567937 16.784396 -7.250423 -18.873904 9.354547 6.856913 -36.433507 19.456000 25.464857 -114.484110 -64.770117 113.777676 43.956959 0.876835 -29.870942 17.506685 -3.705871 9.941521 45.735428 -16.614588 28.806788 87.423067 73.763565 90.458305 -38.931599 5.964481 -19.507797 
0.138041 1.139634 0.986192 -162.532364 3.011225 80.818348 5.718680 -5.399983 5.055532 -4.889182 -12.598812 19.162417 3.591728 23.472185 -19.810680 0.000000 -0.000000 0.000000 2.605076 4.224898 -0.955111 -0.848179 14.581018 16.005545 5.366191 -11.349685 -17.214502 0.000000 -0.000000 0.000000 -7.402849 1.182076 8.399809 -2.300216 -0.839730 7.158870 -0.101199 0.954895 7.172299 3.007662 17.463277 -8.406791 7.682177 15.285858 -6.568059 -19.008093 9.896653 7.012194 -35.643664 19.178538 25.447508 -114.273739 -64.570287 113.573834 43.210255 0.125981 -28.697334 17.939158 -4.413341 10.157501 46.050511 -16.668906 28.456494 88.230930 74.254598 90.832588 -39.210648 5.790070 -20.171680 
0.140144 1.143349 0.989244 -162.989439 2.866776 81.721020 6.034516 -4.243871 5.766860 -3.972061 -12.474099 16.338976 3.165262 22.739265 -18.928072 0.000000 -0.000000 0.000000 1.718755 3.041027 0.199740 -0.861494 14.557836 11.674921 6.169901 -9.936050 -15.649952 0.000000 -0.000000 0.000000 -7.085873 0.893580 7.835464 -2.343583 -1.330752 7.505103 0.035457 0.799082 6.679945 2.509863 16.190147 -9.813675 7.631895 14.404200 -6.727551 -19.079579 10.125414 7.097477 -36.443113 19.225694 24.842516 -114.078356 -64.716789 113.936028 43.937347 0.354745 -28.202302 18.069644 -4.308599 10.226024 46.212533 -16.341094 27.783421 87.197772 74.393238 89.610355 -38.955549 6.153659 -19.771876 
0.142198 1.145960 0.987547 -163.421805 2.310111 82.366154 5.603526 -3.474592 5.659293 -3.169498 -11.884996 15.208623 3.365916 22.020913 -17.923365 0.000000 -0.000000 0.000000 1.371573 2.278192 -0.095885 -1.554885 14.750369 10.568420 6.116017 -9.147258 -14.701321 0.000000 -0.000000 0.000000 -6.874503 0.933873 8.236518 -2.448785 -1.448394 6.861716 0.199951 0.425936 6.840932 1.910214 14.800103 -11.358538 7.404421 13.786387 -6.824986 -19.297953 9.714114 7.393109 -37.758826 19.150293 24.691035 -112.752141 -65.469094 112.492708 46.605784 0.734317 -27.704279 17.981394 -3.925101 10.149511 46.263420 -16.143049 27.492408 85.832569 74.297692 87.919805 -38.994655 6.637627 -19.022330 
0.143893 1.148187 0.985202 -163.843908 1.948465 82.635988 5.471592 -2.807201 5.614432 -2.834227 -11.253527 14.772202 3.466303 21.544164 -17.286368 0.000000 -0.000000 0.000000 1.264984 2.253865 -0.670258 -1.744546 14.938950 10.861279 5.882757 -9.191760 -14.116761 0.000000 -0.000000 0.000000 -6.279020 0.927302 8.975381 -2.532362 -1.212400 6.513415 0.218050 0.342704 7.154210 1.403755 13.563476 -12.639648 6.963058 13.420977 -7.225571 -19.797431 9.192376 7.232538 -38.198909 18.822912 24.499322 -109.244410 -66.092651 108.677670 47.489592 -0.133773 -27.234672 18.026993 -3.371316 10.228981 46.501181 -16.231140 27.271751 84.432032 74.771501 86.292545 -38.871075 7.273309 -18.320711 
0.144724 1.150948 0.984412 -163.580562 1.528767 83.006784 5.431047 -2.273790 5.596934 -2.910411 -11.117718 14.035525 3.266277 21.040195 -16.895783 0.000000 -0.000000 0.000000 0.698220 2.462097 -1.081899 -1.499474 14.556765 11.164382 6.147564 -9.078761 -14.211555 0.000000 -0.000000 0.000000 -5.839318 0.656934 9.180004 -2.483758 -1.183167 6.794424 0.132694 0.431590 6.945812 1.005568 12.805919 -12.751924 6.495887 12.907528 -8.007753 -20.058355 9.258672 7.041685 -37.664999 18.549698 24.031139 -106.513804 -66.063702 106.499053 46.313842 -1.493594 -26.769855 18.112854 -3.242451 10.446182 46.581407 -16.482560 27.092895 84.722458 75.163227 86.797960 -38.610102 7.616219 -18.143420 
0.145011 1.153717 0.985312 -162.954674 1.200016 83.400381 5.314383 -1.931248 5.646609 -2.777730 -11.230044 13.178572 2.846972 20.516535 -16.483271 0.000000 -0.000000 0.000000 0.130039 2.260548 -0.953588 -1.352519 14.113333 10.560857 6.381017 -8.831630 -14.113362 0.000000 -0.000000 0.000000 -5.331521 0.389741 9.112545 -2.365425 -1.383575 7.085140 0.071934 0.406475 6.576291 0.797830 12.312084 -12.097663 6.182908 12.437592 -8.149379 -20.103231 9.482037 6.809619 -36.673196 18.464301 23.847953 -105.872880 -65.737791 106.904406 45.304904 -2.773420 -25.587483 18.243354 -3.566327 10.408111 46.133636 -16.763465 26.873458 87.360870 74.896916 89.838051 -38.565500 7.914090 -18.140644 
0.144794 1.157176 0.986951 -162.716239 0.866677 83.265193 4.984169 -1.352558 6.561387 -2.348263 -11.563711 12.054951 2.634981 20.271050 -16.022194 0.000000 -0.000000 0.000000 -0.095234 1.699002 -0.096932 -1.768159 14.170858 9.694311 6.464073 -8.670074 -13.794334 0.000000 -0.000000 0.000000 -4.879340 0.465799 9.410478 -2.258710 -1.383914 6.944464 0.230124 0.500605 6.520628 0.623777 12.065188 -11.417645 6.086458 12.688970 -7.914033 -19.812996 9.384376 6.368875 -35.130764 18.343051 24.045015 -107.034148 -64.784655 108.785201 44.399819 -2.678875 -23.386903 18.220822 -3.739149 10.317470 46.111603 -17.530009 26.489418 90.331469 75.004831 92.709231 -38.003638 8.059648 -17.717887 
0.143975 1.160543 0.988290 -162.701454 0.241107 83.322775 4.099577 -0.862127 7.596688 -1.681928 -11.960990 10.345908 2.702124 20.494274 -15.379562 0.000000 -0.000000 0.000000 -0.635815 1.540277 0.205967 -2.043854 14.469007 9.432882 6.600758 -8.826031 -13.618040 0.000000 -0.000000 0.000000 -4.846027 0.654505 9.098880 -2.011701 -1.242394 7.449913 0.413221 0.748002 6.073540 0.539693 12.118329 -10.715425 6.177288 12.633238 -8.284814 -18.928394 9.132912 5.779089 -33.541372 17.578785 23.940266 -107.520989 -64.020215 110.342833 43.543777 -2.437497 -21.455262 18.126852 -3.789890 10.460613 46.234078 -18.255786 26.250345 92.332310 75.302170 95.073605 -37.816066 7.950550 -17.777987 
